<svg xmlns="http://www.w3.org/2000/svg" width="118" height="21" viewBox="0 0 118 21" fill="none"><path d="M3.75479 20.444H6.34426C7.76851 13.6716 7.99044 12.7198 8.39738 10.1937H8.43438C8.87832 12.7197 9.11875 14.001 10.4874 20.444H13.1509L16.8871 7.3017H14.0757C12.3556 14.5318 12.1336 15.6667 11.9117 16.9113H11.8746C11.5787 15.209 11.4492 14.5135 9.89554 7.3017H6.95463C5.54888 14.2023 5.34546 15.5385 5.10503 16.9113H5.06803C4.8276 15.4104 4.66109 14.4952 2.95941 7.3017H0L3.7547 20.444H3.75479Z" fill="#4A4949"></path><path d="M25.4037 16.0176C25.4037 12.8227 23.2345 11.3584 20.8301 11.3584C18.4256 11.3584 16.2565 12.8227 16.2565 16.0176C16.2565 19.2124 18.4256 20.6768 20.8301 20.6768C23.2345 20.6768 25.4037 19.2124 25.4037 16.0176ZM22.9823 16.0176C22.9823 17.1491 22.6461 18.7133 20.8301 18.7133C19.0141 18.7133 18.6778 17.1491 18.6778 16.0176C18.6778 14.8861 19.0141 13.3219 20.8301 13.3219C22.6461 13.3219 22.9823 14.8861 22.9823 16.0176ZM35.774 16.0176C35.774 12.8227 33.6048 11.3584 31.2004 11.3584C28.7959 11.3584 26.6268 12.8227 26.6268 16.0176C26.6268 19.2124 28.7959 20.6768 31.2004 20.6768C33.6048 20.6768 35.774 19.2124 35.774 16.0176ZM33.3526 16.0176C33.3526 17.1491 33.0164 18.7133 31.2004 18.7133C29.3844 18.7133 29.0481 17.1491 29.0481 16.0176C29.0481 14.8861 29.3844 13.3219 31.2004 13.3219C33.0164 13.3219 33.3526 14.8861 33.3526 16.0176ZM45.6903 8.49628H43.3362V12.7395H43.3025C42.9326 12.1737 42.2264 11.3584 40.713 11.3584C38.7457 11.3584 36.997 12.856 36.997 15.9177C36.997 18.3471 38.1068 20.6767 40.7634 20.6767C41.7387 20.6767 42.7812 20.3273 43.3529 19.3289H43.3865V20.4438H45.6901V8.49628H45.6903ZM39.4184 16.0841C39.4184 14.6864 39.9229 13.3717 41.4193 13.3717C43.0335 13.3717 43.4371 14.8028 43.4371 16.2172C43.4371 17.5318 42.8486 18.7632 41.3521 18.7632C39.8388 18.7632 39.4185 17.1324 39.4185 16.0841H39.4184ZM53.1516 17.8479C52.9667 18.4802 52.2941 18.813 51.6383 18.813C49.7382 18.813 49.6037 17.3154 49.5365 16.6498H55.6738V16.2338C55.6738 12.1904 53.2357 11.3583 51.4701 11.3583C47.5523 11.3583 47.1824 14.7695 47.1824 15.8344C47.1824 19.4786 49.1161 20.6766 51.6383 20.6766C53.1684 20.6766 54.9507 19.9778 55.5729 17.8478H53.1516V17.8479ZM49.6037 15.1356C49.7382 13.9707 50.3267 13.2718 51.4365 13.2718C52.1931 13.2718 53.1179 13.7045 53.2525 15.1356H49.6037ZM65.422 14.3202C65.422 12.3733 64.06 11.3583 62.3113 11.3583C60.6131 11.3583 59.9404 12.3567 59.6209 12.8891H59.5873V11.5912H57.3342V20.4437H59.6883V15.3685C59.6883 14.0207 60.4954 13.3218 61.5379 13.3218C63.0344 13.3218 63.068 14.4201 63.068 15.069V20.4437H65.4221V14.3202H65.422Z" fill="#4A4949"></path><path d="M70.0818 17.0064C70.0818 18.4874 70.8384 21 75.2438 21C76.3032 21 80.0024 20.6838 80.0024 17.0897C80.0024 14.943 78.489 14.2774 76.8412 13.8782L73.8986 13.1626C73.3941 13.0462 72.6207 12.8465 72.6207 11.9147C72.6207 10.8331 73.7641 10.4836 74.7226 10.4836C76.9253 10.4836 77.127 11.7483 77.1943 12.2808H79.6156C79.5988 10.8164 78.6068 8.42029 74.9075 8.42029C70.9897 8.42029 70.2666 10.7665 70.2666 12.0978C70.2666 14.7269 72.1499 15.1595 74.1003 15.6088L75.3951 15.9084C76.673 16.2079 77.581 16.4575 77.581 17.3894C77.581 18.654 76.2527 18.9368 75.0588 18.9368C72.8561 18.9368 72.5198 17.6722 72.503 17.0066H70.0817L70.0818 17.0064ZM84.4708 9.4352H82.1167V11.8313H80.906V13.4953H82.1167V18.87C82.1167 20.0181 82.4867 20.7836 84.5212 20.7836H84.8239C85.1938 20.7836 85.5637 20.7669 85.9337 20.7503V18.9865C85.7655 19.0031 85.5974 19.0198 85.446 19.0198C84.4875 19.0198 84.4707 18.8201 84.4707 18.3043V13.4953H85.9336V11.8313H84.4707V9.4352H84.4708ZM87.5099 20.6838H89.8639V16.0746C89.8639 15.0928 90.2002 13.9613 92.033 13.9613C92.2516 13.9613 92.5039 13.9613 92.7056 13.9945V11.6317C92.5543 11.6151 92.4029 11.5984 92.2516 11.5984C90.8224 11.5984 90.2843 12.4637 89.7967 13.3622H89.7631V11.8314H87.5099V20.6838ZM99.4272 18.088C99.2423 18.7203 98.5697 19.0532 97.9138 19.0532C96.0138 19.0532 95.8792 17.5556 95.8121 16.8899H101.949V16.474C101.949 12.4305 99.5112 11.5984 97.7457 11.5984C93.8279 11.5984 93.458 15.0096 93.458 16.0746C93.458 19.7187 95.3916 20.9168 97.9138 20.9168C99.444 20.9168 101.226 20.2179 101.848 18.0879H99.4272V18.088ZM95.8792 15.3757C96.0138 14.2109 96.6022 13.512 97.712 13.512C98.4687 13.512 99.3935 13.9447 99.528 15.3757H95.8792ZM108.873 18.088C108.688 18.7203 108.015 19.0532 107.359 19.0532C105.459 19.0532 105.325 17.5556 105.258 16.8899H111.395V16.474C111.395 12.4305 108.957 11.5984 107.191 11.5984C103.273 11.5984 102.903 15.0096 102.903 16.0746C102.903 19.7187 104.837 20.9168 107.359 20.9168C108.889 20.9168 110.672 20.2179 111.294 18.0879H108.873V18.088ZM105.325 15.3757C105.459 14.2109 106.048 13.512 107.158 13.512C107.914 13.512 108.839 13.9447 108.974 15.3757H105.325ZM115.695 9.43529H113.341V11.8314H112.13V13.4954H113.341V18.8701C113.341 20.0182 113.711 20.7837 115.745 20.7837H116.048C116.418 20.7837 116.788 20.767 117.158 20.7504V18.9866C116.99 19.0032 116.822 19.0198 116.67 19.0198C115.712 19.0198 115.695 18.8202 115.695 18.3044V13.4954H117.158V11.8314H115.695V9.43529H115.695Z" fill="#4A4949"></path><path d="M87.4773 7.0659L98.8502 0.206555L99.1927 0L99.5279 0.223531L110.935 7.11283L110.231 8.34211L99.1593 1.67626L88.1285 8.32923L87.4773 7.0659Z" fill="url(#paint0_linear)"></path><defs><linearGradient id="paint0_linear" x1="96.8938" y1="-1.51859" x2="90.1074" y2="10.1466" gradientUnits="userSpaceOnUse"><stop stop-color="#EB5746"></stop><stop offset="0.631373" stop-color="#EC6D36"></stop><stop offset="1" stop-color="#ED8426"></stop></linearGradient></defs></svg>