<svg width="24" height="24" viewBox="0 0 78 60" fill="none" xmlns="http://www.w3.org/2000/svg" style="width: 34px;"><path d="M52.1857 8.57422V44.4989H31.5255C31.4211 42.878 30.7037 41.3575 29.5188 40.2465C28.3339 39.1355 26.7706 38.5172 25.1462 38.5172C23.5219 38.5172 21.9586 39.1355 20.7737 40.2465C19.5888 41.3575 18.8713 42.878 18.767 44.4989H14.7236V8.57422H52.1857Z" stroke="#515151" stroke-width="3" stroke-linecap="round" stroke-linejoin="round"></path><path d="M73.4781 31.8199V44.4992H69.2253C69.1209 42.8782 68.4034 41.3579 67.2186 40.2468C66.0337 39.1357 64.4702 38.5174 62.846 38.5174C61.2217 38.5174 59.6584 39.1357 58.4735 40.2468C57.2886 41.3579 56.571 42.8782 56.4667 44.4992H52.1875V19.1406H61.0894L73.4781 31.8199Z" stroke="#515151" stroke-width="3" stroke-linecap="round" stroke-linejoin="round"></path><path d="M73.4781 31.8203V44.4996H69.2253C69.1209 42.8786 68.4034 41.3582 67.2186 40.2472C66.0337 39.1361 64.4702 38.5178 62.846 38.5178C61.2217 38.5178 59.6584 39.1361 58.4735 40.2472C57.2886 41.3582 56.571 42.8786 56.4667 44.4996H52.1875V31.8203H73.4781Z" stroke="#515151" stroke-width="3" stroke-linecap="round" stroke-linejoin="round"></path><path d="M25.1338 50.8394C28.6642 50.8394 31.5262 48.001 31.5262 44.4998C31.5262 40.9985 28.6642 38.1602 25.1338 38.1602C21.6033 38.1602 18.7412 40.9985 18.7412 44.4998C18.7412 48.001 21.6033 50.8394 25.1338 50.8394Z" stroke="#515151" stroke-width="3" stroke-linecap="round" stroke-linejoin="round"></path><path d="M62.8339 50.8394C66.3643 50.8394 69.2263 48.001 69.2263 44.4998C69.2263 40.9985 66.3643 38.1602 62.8339 38.1602C59.3034 38.1602 56.4414 40.9985 56.4414 44.4998C56.4414 48.001 59.3034 50.8394 62.8339 50.8394Z" stroke="#515151" stroke-width="3" stroke-linecap="round" stroke-linejoin="round"></path><path d="M4.28711 12.8008H9.56853" stroke="#515151" stroke-width="3" stroke-linecap="round" stroke-linejoin="round"></path><path d="M4.29004 21.2539H9.57145" stroke="#515151" stroke-width="3" stroke-linecap="round" stroke-linejoin="round"></path><path d="M4.29004 29.7051H9.57145" stroke="#515151" stroke-width="3" stroke-linecap="round" stroke-linejoin="round"></path></svg>